<svg id="svg" version="1.1" xmlns="http://www.w3.org/2000/svg" xmlns:xlink="http://www.w3.org/1999/xlink" width="400" height="400" viewBox="0, 0, 400,400"><g id="svgg"><path id="path0" d="M197.639 16.746 C 193.571 17.999,185.965 25.399,185.548 28.510 C 185.457 29.186,185.761 30.700,186.546 33.483 C 188.701 41.123,188.161 45.020,184.363 49.233 C 182.655 51.128,182.101 52.383,182.101 54.358 C 182.101 55.140,181.967 55.150,183.977 54.210 C 187.340 52.636,191.620 52.276,194.938 53.288 L 196.230 53.682 196.811 52.976 C 198.194 51.295,198.534 49.761,198.634 44.747 C 198.739 39.480,198.925 38.651,200.003 38.651 C 201.327 38.651,202.769 40.824,207.706 50.254 L 209.641 53.951 211.763 52.203 C 212.931 51.241,214.731 49.759,215.763 48.911 C 217.843 47.200,217.916 47.067,217.006 46.652 C 216.475 46.411,216.154 46.477,215.036 47.062 C 212.921 48.168,212.844 48.111,210.636 43.828 C 205.693 34.244,205.262 33.853,201.126 35.200 C 198.557 36.037,198.473 35.985,199.204 34.028 C 200.418 30.783,201.591 30.114,204.516 31.002 C 208.002 32.059,210.725 30.867,212.046 27.706 L 212.435 26.775 209.654 26.673 C 207.264 26.585,206.680 26.472,205.491 25.866 C 201.793 23.984,197.469 28.049,196.904 33.939 C 196.676 36.309,196.293 37.061,194.792 38.083 C 193.966 38.645,193.901 38.653,193.728 38.212 C 193.526 37.696,192.423 31.435,191.948 28.104 C 191.278 23.404,193.048 20.473,196.537 20.504 C 197.885 20.516,198.424 20.689,201.762 22.175 C 204.223 23.270,203.940 23.334,206.808 21.038 C 208.956 19.319,208.865 19.143,205.253 18.008 C 199.425 16.178,199.464 16.184,197.639 16.746 M229.375 28.592 C 220.816 33.159,218.124 36.425,218.111 42.259 C 218.101 46.721,220.083 51.216,223.526 54.538 L 224.532 55.509 228.617 51.749 C 230.864 49.681,232.744 47.990,232.795 47.990 C 232.845 47.990,232.828 48.953,232.757 50.130 C 232.624 52.321,232.909 54.540,233.512 56.007 L 233.852 56.833 238.262 54.065 C 243.643 50.689,243.432 50.914,242.425 49.616 C 242.399 49.582,241.569 49.787,240.580 50.069 C 237.852 50.850,237.938 50.899,238.174 48.697 C 238.466 45.967,239.479 42.310,240.847 39.047 C 242.413 35.310,242.561 35.106,243.859 34.886 C 245.028 34.689,246.505 33.535,247.273 32.221 L 247.724 31.449 245.457 31.271 C 242.160 31.012,237.252 29.973,233.840 28.811 L 230.863 27.798 229.375 28.592 M122.449 28.578 C 115.636 29.551,112.278 32.531,109.864 39.746 C 108.218 44.664,107.772 43.515,116.268 56.234 C 119.867 61.621,123.164 66.849,123.710 68.037 C 124.249 69.209,124.869 70.316,125.086 70.496 C 125.590 70.912,129.256 71.864,129.482 71.636 C 129.605 71.513,130.739 66.449,130.739 66.023 C 130.739 65.994,130.297 65.838,129.756 65.676 C 128.442 65.282,127.723 64.475,125.672 61.089 C 122.883 56.488,123.041 57.268,124.134 53.483 C 125.296 49.458,125.543 49.027,126.683 49.027 C 132.051 49.027,139.035 61.299,139.762 72.008 L 139.948 74.746 140.856 74.138 C 142.502 73.037,142.730 72.234,142.573 68.093 C 142.234 59.152,138.229 49.115,133.618 45.650 C 131.320 43.924,125.917 42.444,124.791 43.233 C 124.136 43.692,122.652 48.263,122.046 51.686 C 121.800 53.077,121.519 54.215,121.422 54.215 C 121.168 54.215,113.869 41.648,113.463 40.511 C 112.743 38.497,113.173 35.933,114.459 34.564 C 115.911 33.018,121.053 32.384,123.720 33.421 C 124.496 33.723,125.154 33.943,125.182 33.911 C 125.434 33.617,127.635 28.975,127.558 28.898 C 127.423 28.763,124.780 28.266,124.413 28.307 C 124.254 28.325,123.370 28.447,122.449 28.578 M162.387 29.544 C 160.936 30.346,153.835 32.473,151.529 32.797 C 147.114 33.417,145.331 34.744,143.291 38.933 C 139.394 46.936,141.589 53.920,149.416 58.419 C 150.700 59.156,155.325 60.844,155.522 60.647 C 155.590 60.579,156.336 58.336,157.179 55.662 C 158.021 52.988,158.764 50.748,158.828 50.683 C 158.892 50.619,159.573 51.635,160.339 52.942 C 161.707 55.271,164.078 57.830,164.476 57.404 C 165.667 56.129,169.346 48.371,168.962 47.946 C 168.347 47.266,168.222 47.314,166.449 48.903 L 164.851 50.335 163.852 48.223 C 162.634 45.647,161.513 41.300,161.088 37.509 L 160.771 34.680 161.702 33.877 C 162.722 32.998,163.002 32.404,163.275 30.545 C 163.463 29.265,163.274 29.053,162.387 29.544 M231.721 32.809 C 233.260 33.300,234.933 33.780,235.438 33.875 C 236.756 34.122,236.751 34.258,235.280 39.062 C 233.409 45.171,233.569 44.937,229.604 47.329 L 227.172 48.797 226.573 48.234 C 223.892 45.715,222.711 38.663,224.385 35.176 C 226.034 31.745,227.204 31.367,231.721 32.809 M252.523 34.855 C 249.352 35.883,245.396 38.343,245.396 39.288 C 245.396 40.280,246.150 40.292,248.275 39.335 C 249.426 38.816,250.475 38.392,250.606 38.392 C 251.289 38.392,250.585 40.846,247.812 48.130 L 244.780 56.093 245.377 57.845 C 246.275 60.485,246.030 60.426,249.143 58.756 C 251.348 57.574,251.877 57.183,251.732 56.845 C 250.987 55.106,251.008 54.652,251.943 52.267 C 252.446 50.985,253.062 49.351,253.312 48.638 C 254.371 45.618,257.616 43.609,261.803 43.381 L 264.073 43.257 264.073 44.733 C 264.073 45.802,263.846 46.753,263.254 48.176 C 262.123 50.894,257.204 60.818,256.238 62.332 C 255.237 63.900,255.094 63.845,258.726 63.290 C 262.549 62.706,262.263 62.991,264.846 57.196 C 267.571 51.080,268.291 50.416,273.641 49.087 C 275.583 48.605,276.235 48.826,277.232 50.304 C 278.036 51.498,278.083 51.367,275.613 54.864 C 271.848 60.193,269.944 64.605,269.591 68.818 C 269.450 70.501,269.472 70.609,269.934 70.474 C 270.206 70.395,272.529 69.780,275.097 69.107 C 280.222 67.766,280.284 67.738,280.034 66.952 C 279.876 66.452,279.670 66.407,277.548 66.407 L 275.235 66.407 275.771 65.045 C 277.677 60.205,281.455 54.944,284.583 52.777 C 285.833 51.910,285.833 51.932,284.601 50.115 C 284.050 49.303,283.232 47.911,282.784 47.021 C 281.574 44.622,281.202 44.603,274.077 46.577 C 269.087 47.960,269.375 47.995,270.042 46.097 C 270.942 43.537,270.606 41.433,269.013 39.637 C 267.331 37.741,264.543 38.144,258.565 41.146 C 255.880 42.494,255.692 42.526,256.057 41.569 C 256.491 40.435,256.648 36.580,256.311 35.344 C 255.947 34.004,255.375 33.931,252.523 34.855 M156.543 41.949 C 157.957 47.675,158.008 47.075,155.764 51.258 C 154.329 53.933,154.326 53.936,153.623 53.628 C 148.490 51.375,145.231 47.157,145.047 42.526 C 144.904 38.936,145.367 38.361,148.779 37.883 C 149.914 37.724,151.777 37.381,152.918 37.121 C 155.464 36.541,155.081 36.031,156.543 41.949 M196.887 44.099 L 196.887 48.508 192.218 48.508 C 189.650 48.508,187.549 48.438,187.549 48.351 C 187.549 46.950,195.193 39.710,196.693 39.691 C 196.800 39.690,196.887 41.673,196.887 44.099 M94.295 50.229 C 92.440 54.670,92.181 58.609,93.554 61.514 L 94.368 63.235 92.829 64.756 C 90.888 66.675,90.783 67.084,91.727 69.060 L 92.473 70.621 94.725 68.192 C 95.963 66.855,97.022 65.819,97.077 65.890 C 104.552 75.409,110.610 80.170,115.348 80.250 C 118.016 80.295,117.766 80.734,118.314 75.037 C 118.571 72.360,118.842 69.685,118.915 69.094 C 119.028 68.182,118.972 67.999,118.538 67.886 C 117.748 67.679,117.171 68.653,116.216 71.805 L 115.354 74.649 114.555 74.420 C 111.478 73.537,108.874 71.456,105.179 66.927 C 103.672 65.080,102.329 63.501,102.194 63.417 C 101.140 62.766,101.413 62.300,103.635 60.958 C 107.539 58.600,107.613 58.490,107.228 55.678 C 107.018 54.143,107.291 54.065,102.807 56.938 L 98.962 59.402 98.355 58.689 C 96.554 56.577,95.986 54.174,96.316 50.065 C 96.413 48.863,94.812 48.993,94.295 50.229 M292.218 54.759 C 287.725 55.365,285.388 56.313,285.855 57.339 L 286.146 57.977 288.868 57.740 C 292.436 57.431,292.451 57.451,290.907 60.441 C 289.314 63.524,287.366 66.231,284.162 69.814 C 282.743 71.401,281.472 72.850,281.337 73.035 C 281.177 73.254,281.255 74.246,281.559 75.856 C 282.099 78.726,281.807 78.571,285.472 77.930 C 288.235 77.447,287.985 77.615,287.635 76.476 C 287.161 74.931,287.552 73.843,289.416 71.522 C 292.963 67.102,294.328 66.180,298.359 65.476 C 300.810 65.048,301.192 65.182,301.973 66.740 C 303.317 69.421,303.837 69.599,306.984 68.460 L 309.197 67.659 308.784 66.709 C 308.557 66.186,308.196 65.175,307.982 64.462 C 307.769 63.748,307.508 62.990,307.403 62.776 C 306.657 61.253,301.498 61.429,297.339 63.119 L 295.730 63.773 296.139 62.820 C 297.491 59.676,298.173 55.545,297.459 54.830 C 297.152 54.523,294.260 54.484,292.218 54.759 M74.966 65.080 C 71.456 66.217,69.540 69.793,71.083 72.324 C 72.758 75.072,77.508 73.955,79.144 70.428 C 80.649 67.185,78.189 64.036,74.966 65.080 M77.154 67.333 C 78.375 68.555,77.688 70.562,75.712 71.543 C 72.566 73.105,70.980 69.280,74.007 67.434 C 75.008 66.824,76.593 66.773,77.154 67.333 M87.139 69.066 C 84.384 72.243,82.447 74.166,80.378 75.779 C 75.605 79.499,74.426 86.243,77.408 92.758 C 80.049 98.525,91.373 101.955,97.341 98.795 C 98.101 98.393,97.718 95.321,96.235 89.927 C 95.545 87.415,95.539 87.421,97.619 88.725 C 99.565 89.945,102.441 91.037,103.730 91.045 L 104.606 91.051 104.446 89.689 C 104.359 88.940,104.210 86.557,104.116 84.395 L 103.944 80.463 103.241 80.360 C 102.569 80.261,102.508 80.349,101.832 82.427 L 101.125 84.597 100.433 84.158 C 96.998 81.978,93.319 78.341,90.437 74.279 L 89.427 72.856 89.836 71.591 C 90.250 70.307,90.184 69.652,89.465 67.899 C 89.058 66.907,88.974 66.949,87.139 69.066 M306.939 73.553 C 302.996 74.614,300.133 77.659,298.411 82.622 C 297.541 85.131,297.309 91.318,298.052 92.214 C 298.510 92.767,302.877 92.644,306.987 91.963 C 309.846 91.489,309.779 91.382,308.051 93.677 C 306.462 95.787,304.826 99.307,305.298 99.599 C 305.724 99.862,315.586 100.746,316.061 100.563 C 317.170 100.138,316.518 99.182,314.527 98.314 C 313.457 97.847,312.581 97.333,312.581 97.170 C 312.581 96.114,319.854 90.208,323.389 88.392 L 325.507 87.305 326.660 87.881 C 328.026 88.563,328.872 88.598,330.725 88.048 L 332.101 87.639 329.377 85.073 C 326.628 82.484,323.655 79.006,321.726 76.124 C 320.235 73.897,320.283 73.919,316.155 73.521 C 311.511 73.072,308.686 73.082,306.939 73.553 M315.025 75.331 C 315.627 75.583,316.253 76.242,317.055 77.471 C 317.693 78.448,318.866 80.058,319.663 81.049 C 320.459 82.039,321.060 82.932,320.998 83.032 C 320.736 83.454,314.917 87.683,313.489 88.487 C 311.949 89.355,311.900 89.364,308.805 89.338 C 304.759 89.303,304.181 89.061,304.071 87.349 C 303.747 82.303,308.062 76.417,312.970 75.212 C 314.096 74.935,314.074 74.934,315.025 75.331 M89.280 81.392 C 93.518 85.714,93.385 85.445,93.385 89.701 C 93.385 93.315,93.324 93.385,90.157 93.385 C 85.013 93.385,80.908 91.225,78.903 87.464 C 77.878 85.540,77.851 84.568,78.794 83.526 C 79.661 82.568,85.152 77.599,85.368 77.577 C 85.453 77.569,87.213 79.285,89.280 81.392 M268.192 78.823 C 266.072 80.220,254.277 91.966,250.835 96.109 C 237.049 112.699,228.426 130.810,226.073 148.119 C 225.417 152.947,224.997 170.427,225.429 174.943 C 226.076 181.705,225.835 182.849,224.035 181.565 C 222.757 180.653,222.004 179.688,214.345 169.165 C 195.078 142.688,184.628 130.985,169.303 118.718 C 158.676 110.211,140.156 98.833,128.275 93.511 C 122.898 91.102,122.698 91.164,122.698 95.235 C 122.698 98.326,123.058 100.171,125.856 111.414 C 128.579 122.352,130.155 126.339,134.833 134.112 C 146.396 153.324,159.040 165.742,174.968 173.527 C 179.363 175.675,180.129 176.003,191.385 180.567 C 201.555 184.691,201.654 184.736,202.789 185.813 C 204.353 187.298,203.513 187.888,199.224 188.316 C 169.802 191.251,142.352 221.078,149.440 242.412 C 153.244 253.864,163.805 262.107,180.408 266.585 C 186.635 268.264,186.321 267.860,185.807 273.541 C 184.832 284.314,185.820 288.292,189.559 288.651 C 191.432 288.831,192.790 288.178,202.246 282.545 C 214.614 275.177,214.035 275.200,213.498 282.101 C 212.884 289.978,214.303 290.023,230.350 282.627 C 254.715 271.397,254.758 271.349,257.435 252.659 C 260.879 228.615,259.512 217.474,251.626 205.318 C 243.228 192.372,243.308 192.688,247.319 188.336 C 249.958 185.472,256.070 175.801,259.227 169.492 C 264.780 158.396,267.522 145.989,268.739 126.459 C 269.572 113.100,270.664 77.562,270.242 77.562 C 270.167 77.562,269.244 78.129,268.192 78.823 M329.019 90.127 C 327.732 90.688,327.782 90.854,329.967 93.246 C 331.105 94.492,332.036 95.593,332.036 95.692 C 332.036 95.791,329.444 97.618,326.276 99.752 C 317.856 105.423,316.265 107.136,315.437 111.414 C 314.895 114.214,314.948 114.261,320.493 115.802 C 329.077 118.189,331.376 117.385,324.642 114.352 C 321.130 112.769,321.238 112.883,321.929 111.509 C 323.420 108.550,325.732 106.450,330.610 103.627 C 332.036 102.801,333.708 101.782,334.324 101.362 C 334.941 100.942,335.482 100.639,335.527 100.688 C 335.572 100.738,336.382 102.325,337.326 104.215 L 339.044 107.652 341.247 107.652 C 342.459 107.652,343.450 107.608,343.450 107.554 C 343.450 107.499,342.407 105.490,341.133 103.089 L 338.816 98.723 339.771 98.154 C 342.190 96.715,345.842 96.395,348.589 97.381 L 349.706 97.783 349.626 96.834 C 349.414 94.322,341.314 91.844,337.070 92.993 L 335.367 93.454 334.155 92.277 C 331.697 89.888,330.613 89.434,329.019 90.127 M66.009 93.163 C 64.497 96.260,61.467 100.981,59.153 103.846 L 57.514 105.876 57.664 108.256 C 58.091 115.037,60.971 120.908,64.739 122.679 C 68.910 124.639,75.690 124.305,80.447 121.903 C 82.919 120.656,82.922 120.742,80.188 114.415 C 79.175 112.072,78.381 110.119,78.424 110.075 C 78.468 110.032,79.546 110.354,80.821 110.791 C 83.205 111.607,86.523 112.049,87.210 111.643 C 87.544 111.445,87.437 110.693,86.430 106.161 L 85.262 100.908 84.425 100.908 L 83.588 100.908 83.413 102.659 C 83.174 105.033,83.066 105.318,82.408 105.318 C 80.751 105.317,74.761 101.576,71.391 98.438 L 69.242 96.436 69.399 94.975 C 69.543 93.638,69.483 93.396,68.695 92.106 C 67.510 90.167,67.463 90.186,66.009 93.163 M53.558 91.673 C 51.581 92.535,49.996 95.011,49.963 97.293 C 49.882 102.795,57.043 101.927,58.514 96.256 C 59.425 92.745,56.758 90.279,53.558 91.673 M56.291 93.904 C 57.341 94.954,56.704 97.432,55.115 98.473 C 53.743 99.371,52.086 98.813,51.808 97.358 C 51.317 94.792,54.628 92.241,56.291 93.904 M70.789 105.192 C 75.673 108.539,75.505 108.322,76.326 112.337 C 77.197 116.600,76.200 117.527,70.687 117.577 C 65.086 117.629,59.370 113.646,60.369 110.389 C 60.654 109.461,65.836 102.205,66.213 102.205 C 66.334 102.205,68.393 103.549,70.789 105.192 M337.484 115.861 C 330.324 117.730,325.036 124.597,325.344 131.627 L 325.422 133.409 327.756 134.664 C 330.775 136.286,334.059 137.598,337.045 138.374 L 339.429 138.994 339.651 138.352 C 339.925 137.558,340.359 137.889,335.795 135.407 C 331.519 133.082,330.999 132.645,330.999 131.382 C 330.999 129.498,332.587 125.931,333.918 124.826 C 334.215 124.579,334.911 124.955,337.506 126.763 C 345.215 132.132,347.094 133.258,349.440 133.918 L 351.669 134.544 351.287 132.836 C 350.578 129.665,350.840 124.875,351.858 122.428 C 352.308 121.345,343.199 116.255,339.689 115.628 C 339.261 115.552,338.268 115.657,337.484 115.861 M345.985 120.492 C 346.024 120.523,346.024 122.612,345.985 125.135 L 345.914 129.722 341.190 126.404 C 338.592 124.580,336.461 123.019,336.456 122.935 C 336.383 121.814,344.893 119.633,345.985 120.492 M48.786 127.389 C 47.923 129.939,47.345 131.014,45.785 132.970 C 43.120 136.310,46.362 142.385,52.017 144.649 C 53.986 145.437,54.310 145.829,54.829 148.056 C 55.267 149.935,55.377 149.880,52.659 149.130 C 51.251 148.741,49.495 148.541,46.304 148.406 C 40.673 148.169,39.236 147.488,37.641 144.303 C 36.666 142.354,37.959 139.074,41.144 135.423 C 43.171 133.098,43.247 132.330,41.778 129.073 L 40.967 127.277 39.789 128.425 C 37.458 130.695,34.753 135.422,34.353 137.928 C 33.836 141.160,36.535 149.092,39.727 153.722 C 41.412 156.166,41.395 156.161,47.306 156.161 C 56.136 156.161,59.863 157.842,62.113 162.841 C 63.458 165.832,63.655 166.109,64.851 166.709 C 65.493 167.030,66.323 167.365,66.695 167.453 L 67.372 167.613 67.125 166.102 C 66.482 162.169,67.421 157.041,69.552 152.856 L 70.807 150.390 70.297 149.674 C 68.779 147.542,66.183 146.142,61.705 145.039 C 56.230 143.691,54.851 141.695,58.507 140.410 C 60.778 139.612,68.569 137.459,71.984 136.685 C 73.982 136.233,75.650 135.834,75.692 135.798 C 75.759 135.740,73.107 127.850,72.401 126.007 C 72.150 125.352,72.076 125.321,71.447 125.607 C 70.771 125.915,70.766 125.937,70.927 128.004 C 71.135 130.679,71.147 130.666,67.807 131.389 C 65.289 131.935,57.557 134.153,55.720 134.858 C 54.471 135.337,54.180 136.141,54.023 139.550 C 53.862 143.044,53.900 142.993,52.355 141.820 C 49.758 139.850,48.920 137.459,50.271 135.872 C 53.282 132.331,53.378 128.385,50.518 125.614 L 49.667 124.788 48.786 127.389 M348.796 137.635 C 348.412 138.634,348.703 139.042,351.102 140.869 C 352.458 141.902,353.567 142.832,353.567 142.937 C 353.567 144.393,341.269 148.119,336.462 148.119 C 335.794 148.119,335.053 148.265,334.814 148.444 C 334.476 148.696,332.296 153.241,332.296 153.694 C 332.296 153.749,333.476 154.613,334.920 155.613 L 337.543 157.430 338.227 156.082 C 339.034 154.491,340.171 153.657,341.848 153.425 C 342.515 153.333,343.720 153.094,344.525 152.894 C 347.624 152.122,349.771 152.533,352.967 154.507 C 356.067 156.422,356.706 157.647,355.772 159.882 C 354.786 162.241,355.346 163.191,358.559 164.611 L 361.087 165.728 361.230 165.030 C 361.308 164.646,361.726 163.223,362.159 161.868 C 363.081 158.979,363.041 158.760,361.200 156.713 C 359.496 154.818,356.792 152.977,354.467 152.129 L 352.528 151.422 354.239 150.422 C 357.348 148.605,358.785 147.115,359.391 145.081 C 359.932 143.264,349.460 135.904,348.796 137.635 M61.452 147.080 C 63.649 147.647,65.508 148.171,65.583 148.246 C 65.713 148.376,62.863 159.014,62.638 159.239 C 62.289 159.588,59.561 155.066,58.434 152.270 C 57.316 149.498,56.598 146.042,57.140 146.047 C 57.315 146.049,59.255 146.514,61.452 147.080 M184.964 208.436 C 189.855 210.914,191.177 217.416,187.507 220.934 C 183.439 224.832,175.891 223.244,174.408 218.177 C 172.498 211.650,179.166 205.497,184.964 208.436 M247.082 283.144 C 244.686 283.668,217.451 293.035,216.212 293.761 C 212.745 295.793,211.027 300.466,213.414 301.370 C 216.475 302.529,220.241 301.430,240.396 293.500 C 247.767 290.600,251.109 288.387,251.485 286.158 C 251.907 283.663,250.164 282.470,247.082 283.144 M202.161 286.786 C 200.918 287.437,198.788 288.744,197.430 289.691 C 192.174 293.356,189.679 293.516,183.760 290.570 C 177.189 287.299,172.329 285.814,171.361 286.782 C 170.127 288.017,170.677 293.040,173.222 303.761 C 174.721 310.077,175.120 310.149,182.294 305.400 C 190.453 299.999,191.729 300.283,200.806 309.515 C 204.131 312.897,205.572 313.799,207.172 313.499 C 208.662 313.219,208.684 313.029,208.324 303.693 C 207.693 287.362,207.601 286.713,205.800 285.960 C 204.632 285.472,204.704 285.456,202.161 286.786 M98.251 306.968 C 96.789 307.514,96.049 308.077,95.292 309.220 C 94.458 310.480,94.308 310.354,97.209 310.835 C 104.303 312.012,107.765 317.032,105.883 323.411 L 105.557 324.514 102.843 324.514 C 100.149 324.514,99.749 324.653,100.543 325.312 C 107.118 330.769,96.565 338.835,85.473 336.831 C 81.823 336.172,80.439 336.456,78.778 338.204 L 78.049 338.971 80.724 339.944 C 90.965 343.669,98.712 347.603,104.792 352.166 C 107.382 354.110,107.147 354.082,112.086 353.030 C 114.142 352.593,117.049 352.011,118.547 351.738 C 124.189 350.708,126.631 349.455,127.773 347.000 C 129.708 342.844,126.834 337.995,120.658 334.994 L 117.971 333.688 121.059 332.889 C 124.641 331.962,126.117 331.323,127.591 330.061 L 128.652 329.153 127.992 328.156 C 126.618 326.080,126.280 323.622,126.973 320.752 C 127.179 319.896,127.353 319.091,127.358 318.962 C 127.397 317.970,119.268 319.573,115.967 321.208 C 114.747 321.812,113.678 322.340,113.592 322.382 C 113.506 322.423,113.361 321.664,113.271 320.696 C 112.791 315.549,110.729 311.717,107.185 309.384 C 103.813 307.164,100.285 306.210,98.251 306.968 M309.339 319.096 C 306.939 319.943,304.236 320.073,301.427 319.474 C 299.473 319.058,299.654 318.938,298.709 321.271 C 298.304 322.270,297.360 324.269,296.612 325.713 C 294.304 330.168,294.179 332.860,296.094 336.891 C 297.913 340.722,300.108 343.253,302.599 344.394 C 304.931 345.461,313.133 345.966,314.346 345.117 C 317.005 343.254,320.864 328.965,318.637 329.231 C 318.009 329.305,317.772 329.722,315.978 333.898 C 313.807 338.951,313.462 339.467,312.091 339.725 C 310.198 340.081,305.506 338.778,304.555 337.633 C 304.323 337.353,304.733 336.387,306.452 333.164 C 311.101 324.452,311.875 322.667,312.009 320.360 C 312.148 317.956,312.326 318.041,309.339 319.096 M151.232 321.566 C 151.018 321.652,149.976 322.062,148.917 322.479 C 143.754 324.511,141.214 327.294,140.079 332.162 C 139.794 333.384,139.384 334.807,139.167 335.326 C 138.951 335.844,137.959 338.978,136.963 342.290 C 134.746 349.664,133.397 353.607,132.174 356.290 L 131.242 358.336 132.080 359.518 C 133.892 362.076,134.912 363.424,135.035 363.424 C 135.184 363.424,140.939 360.816,141.082 360.684 C 141.135 360.635,140.831 360.151,140.406 359.610 C 138.552 357.245,138.498 357.727,142.010 345.424 C 146.265 330.521,148.523 324.732,150.643 323.297 C 151.841 322.485,155.823 325.405,157.315 328.190 C 157.723 328.950,158.086 329.610,158.123 329.657 C 158.175 329.723,162.163 327.545,162.611 327.206 C 162.831 327.040,161.515 325.272,160.421 324.263 C 158.125 322.148,153.316 320.736,151.232 321.566 M120.748 323.541 C 121.541 326.948,122.118 330.124,121.971 330.263 C 121.722 330.501,115.144 332.419,113.230 332.813 C 111.215 333.227,110.471 333.625,109.495 334.810 C 108.506 336.009,108.446 335.963,112.080 336.806 C 123.595 339.475,125.501 346.836,115.549 350.200 C 112.562 351.209,112.707 351.233,110.176 349.324 C 105.862 346.071,100.243 343.013,94.358 340.717 C 91.272 339.514,91.265 339.466,94.099 339.051 C 103.547 337.671,108.723 334.391,111.933 327.752 C 113.153 325.227,113.442 324.822,114.415 324.275 C 116.935 322.859,120.494 322.446,120.748 323.541 M305.461 329.848 L 302.414 334.933 301.826 334.380 C 300.490 333.125,299.268 329.818,299.244 327.394 L 299.222 325.162 303.761 324.900 C 306.258 324.756,308.347 324.667,308.404 324.701 C 308.461 324.735,307.136 327.051,305.461 329.848 M284.955 326.773 C 281.579 329.333,277.330 331.018,273.037 331.500 C 270.640 331.769,270.754 331.676,268.593 335.095 C 263.432 343.260,262.823 347.607,266.122 352.748 C 269.161 357.485,277.157 361.672,279.358 359.680 C 279.870 359.217,283.213 351.905,283.966 349.600 C 284.457 348.100,284.150 347.867,287.659 352.399 C 290.744 356.385,291.051 356.964,291.051 358.807 C 291.051 361.493,289.378 363.101,285.992 363.669 C 279.725 364.721,272.302 367.461,270.963 369.217 C 270.270 370.125,269.947 370.856,269.253 373.088 L 268.789 374.580 270.906 373.432 C 275.435 370.976,279.480 369.630,284.042 369.060 L 286.761 368.721 288.477 366.736 C 292.053 362.600,296.299 357.139,297.332 355.348 L 298.404 353.488 297.742 352.944 C 292.080 348.288,290.172 346.084,288.061 341.764 C 285.863 337.266,284.965 332.621,286.066 331.445 C 286.875 330.582,287.160 329.596,287.156 327.674 C 287.150 325.236,287.040 325.191,284.955 326.773 M219.764 328.748 C 216.250 331.881,213.010 336.572,213.809 337.371 C 213.950 337.512,219.830 333.568,220.536 332.859 C 220.893 332.500,222.683 326.618,222.493 326.427 C 222.460 326.395,221.232 327.439,219.764 328.748 M192.866 327.620 C 190.308 328.471,183.049 334.549,182.636 336.187 C 182.510 336.686,182.095 340.480,181.714 344.617 C 180.778 354.790,180.417 357.830,179.499 363.235 C 178.613 368.455,178.556 368.090,180.637 370.558 C 181.359 371.414,181.975 372.154,182.006 372.203 C 182.055 372.280,186.977 368.672,187.665 368.055 C 187.813 367.922,187.595 367.501,187.112 366.991 C 185.686 365.485,185.385 363.178,186.178 359.826 C 186.591 358.079,194.217 360.852,196.174 363.461 C 197.823 365.658,198.051 366.432,198.053 369.832 L 198.054 372.998 203.749 370.064 C 209.809 366.942,209.990 366.806,208.975 366.141 C 208.361 365.738,208.229 365.744,206.833 366.226 C 204.980 366.867,204.894 366.831,204.311 365.170 C 203.052 361.581,199.097 357.458,196.913 357.458 C 196.775 357.458,196.339 357.335,195.945 357.185 L 195.228 356.913 195.993 356.408 C 196.413 356.130,197.834 355.476,199.149 354.953 C 201.674 353.951,203.234 352.759,203.031 351.987 C 202.724 350.811,198.111 343.709,197.655 343.709 C 196.159 343.709,192.220 346.321,188.939 349.489 L 186.827 351.528 186.939 349.759 C 187.844 335.407,188.232 333.498,190.780 330.839 C 192.729 328.805,197.674 330.344,200.059 333.727 L 200.868 334.876 202.998 332.872 L 205.127 330.869 204.315 330.137 C 201.666 327.751,196.133 326.534,192.866 327.620 M281.223 340.219 C 282.200 342.923,283.002 345.253,283.004 345.396 C 283.011 345.872,278.957 353.141,278.537 353.406 C 277.100 354.312,271.607 349.924,269.938 346.536 C 267.894 342.387,268.225 337.331,270.584 336.658 C 271.400 336.425,278.921 335.207,279.216 335.260 C 279.342 335.283,280.245 337.514,281.223 340.219 M245.614 339.090 C 245.172 339.438,240.926 346.202,239.958 348.099 C 239.271 349.446,239.315 349.469,238.636 347.406 C 237.600 344.258,235.559 340.856,234.706 340.856 C 233.774 340.856,228.746 346.641,227.530 349.113 C 226.525 351.155,227.830 352.127,229.271 350.411 C 232.584 346.468,232.698 346.457,233.412 350.000 C 234.691 356.350,235.305 360.961,235.262 363.888 C 235.212 367.236,235.113 367.036,237.733 368.848 L 239.646 370.170 241.906 367.423 L 244.165 364.675 242.824 363.317 C 241.313 361.787,240.651 359.563,240.301 354.842 L 240.136 352.616 241.765 350.173 C 244.116 346.649,245.076 345.525,245.737 345.525 C 246.913 345.525,250.584 346.387,250.585 346.663 C 250.598 349.898,252.444 357.889,253.844 360.773 C 255.027 363.210,258.024 366.779,258.593 366.427 C 258.944 366.210,265.888 356.174,265.888 355.883 C 265.888 354.930,264.132 355.874,261.785 358.087 L 260.665 359.144 260.124 358.495 C 257.848 355.765,256.447 350.546,256.431 344.737 L 256.420 340.448 253.696 340.444 C 251.360 340.441,250.696 340.337,249.027 339.717 C 246.429 338.750,246.117 338.693,245.614 339.090 M162.516 340.891 C 161.518 341.475,159.365 342.663,157.733 343.529 C 152.462 346.328,150.454 349.794,150.454 356.095 C 150.454 361.809,156.027 369.147,160.350 369.125 C 162.591 369.114,167.632 365.982,171.310 362.317 L 173.620 360.015 173.092 359.488 L 172.564 358.960 168.191 361.462 C 162.386 364.784,161.816 364.794,159.299 361.610 C 156.108 357.573,156.206 357.369,162.776 354.350 C 170.961 350.587,171.769 350.139,172.927 348.718 C 174.801 346.418,174.784 346.659,173.111 346.173 C 170.041 345.281,167.656 343.704,165.843 341.371 C 164.415 339.532,164.754 339.581,162.516 340.891 M215.364 343.696 C 214.015 344.673,212.098 346.979,210.497 349.547 L 209.240 351.563 209.821 352.033 C 210.608 352.670,210.937 352.486,212.447 350.564 C 214.406 348.072,217.509 347.078,216.991 349.108 C 214.982 356.971,216.265 368.967,219.420 371.823 C 220.217 372.544,229.605 363.659,228.886 362.864 C 228.292 362.208,228.073 362.251,226.588 363.316 C 225.083 364.395,223.349 365.329,223.176 365.156 C 222.935 364.915,221.785 357.619,221.507 354.573 C 221.197 351.183,221.470 347.476,222.212 344.976 C 222.687 343.376,222.905 343.558,220.104 343.217 C 216.803 342.815,216.545 342.841,215.364 343.696 M164.397 347.064 C 166.287 348.386,167.832 349.543,167.829 349.636 C 167.825 349.765,161.162 352.466,157.156 353.963 C 156.661 354.148,156.711 353.153,157.336 350.324 C 157.969 347.461,159.968 343.905,160.651 344.426 C 160.821 344.555,162.506 345.743,164.397 347.064 M196.297 351.486 C 197.043 352.618,197.568 353.592,197.465 353.651 C 196.477 354.216,186.667 357.733,186.384 357.624 C 184.535 356.915,192.004 349.419,194.553 349.427 C 194.767 349.428,195.552 350.354,196.297 351.486 " stroke="none" fill="#fafafa" fill-rule="evenodd"></path><path id="path1" d="M188.716 0.167 C 188.145 0.210,185.927 0.374,183.787 0.530 C 76.225 8.382,-6.736 104.011,0.233 212.113 C 7.788 329.320,112.170 414.371,228.405 398.028 C 316.001 385.712,385.712 316.001,398.028 228.405 C 414.334 112.431,329.650 8.156,212.755 0.268 C 209.246 0.032,191.464 -0.044,188.716 0.167 M204.410 17.617 C 209.217 19.129,209.228 19.147,206.695 21.255 C 204.135 23.386,204.108 23.389,200.822 21.899 C 193.226 18.454,190.882 21.429,192.732 32.166 C 193.186 34.805,193.622 37.341,193.699 37.801 L 193.840 38.638 194.826 37.931 C 196.095 37.021,196.628 36.102,196.628 34.820 C 196.628 30.916,198.547 27.477,201.597 25.919 C 203.397 24.999,203.931 24.918,204.799 25.433 C 206.279 26.311,208.522 26.789,210.550 26.659 C 212.668 26.523,212.773 26.625,212.033 28.093 C 210.538 31.061,208.113 32.065,204.669 31.143 C 201.362 30.257,200.643 30.632,199.380 33.900 C 198.554 36.037,198.387 35.948,201.384 34.967 C 203.354 34.322,204.053 34.197,204.608 34.387 C 205.565 34.715,207.984 38.421,210.651 43.645 C 212.936 48.121,212.955 48.136,214.656 47.088 C 215.869 46.342,216.765 46.266,217.416 46.855 C 217.856 47.253,217.656 47.463,213.839 50.616 C 209.082 54.545,209.654 54.372,208.592 52.205 C 206.114 47.145,201.716 39.570,200.940 39.027 C 199.230 37.829,198.835 38.801,198.824 44.228 C 198.815 49.142,198.370 51.192,196.947 52.884 L 196.239 53.726 194.553 53.326 C 191.088 52.504,186.710 52.930,183.879 54.364 C 182.216 55.207,182.101 55.175,182.101 53.865 C 182.101 52.131,182.572 51.121,184.225 49.309 C 188.060 45.104,188.580 41.540,186.478 33.872 C 184.744 27.549,185.773 25.071,192.303 19.835 C 197.094 15.993,198.455 15.743,204.410 17.617 M234.193 28.782 C 237.557 29.920,241.402 30.757,244.358 30.995 C 245.428 31.082,246.683 31.211,247.146 31.282 L 247.989 31.411 246.938 32.803 C 245.898 34.180,244.643 35.019,243.624 35.019 C 242.172 35.019,239.139 42.569,238.363 48.114 C 237.985 50.814,237.857 50.690,240.327 50.018 C 242.489 49.430,243.228 49.656,243.001 50.835 C 242.918 51.265,234.258 56.858,233.874 56.730 C 233.312 56.543,232.846 54.431,232.704 51.430 L 232.555 48.255 228.560 51.940 L 224.566 55.624 222.672 53.617 C 216.335 46.900,216.309 37.614,222.614 32.750 C 224.381 31.386,230.341 27.756,230.812 27.756 C 231.004 27.756,232.526 28.218,234.193 28.782 M127.617 28.658 C 127.764 28.749,127.307 29.952,126.539 31.495 L 125.207 34.174 124.017 33.647 C 121.681 32.611,117.352 32.879,115.086 34.200 C 113.498 35.125,112.795 38.613,113.739 40.874 C 114.463 42.606,121.223 53.978,121.407 53.773 C 121.509 53.659,121.798 52.458,122.049 51.102 C 122.624 48.002,123.852 44.072,124.496 43.278 L 124.987 42.672 127.719 43.230 C 132.166 44.138,134.532 45.576,136.529 48.585 C 142.064 56.923,144.710 70.757,141.350 73.792 C 139.932 75.073,139.932 75.072,139.602 71.530 C 138.752 62.418,133.719 52.243,128.861 49.815 C 126.017 48.394,125.768 48.565,124.483 52.823 C 123.192 57.102,123.132 56.666,125.565 60.721 C 127.775 64.403,128.514 65.271,129.649 65.519 C 130.035 65.603,130.483 65.712,130.645 65.761 C 130.911 65.841,129.907 71.477,129.566 71.818 C 129.422 71.961,125.825 71.093,125.201 70.765 C 124.938 70.626,124.225 69.443,123.617 68.135 C 122.949 66.699,119.841 61.743,115.758 55.606 C 107.744 43.560,108.114 44.550,109.778 39.578 C 112.004 32.928,114.992 30.040,121.055 28.680 C 122.761 28.297,127.010 28.283,127.617 28.658 M163.388 30.545 C 163.130 32.314,162.539 33.563,161.700 34.113 C 160.432 34.943,161.524 42.396,163.660 47.490 C 164.889 50.422,164.710 50.347,166.557 48.702 C 168.169 47.266,169.390 47.106,169.390 48.331 C 169.390 48.868,164.605 57.588,164.310 57.588 C 163.690 57.588,161.426 54.991,160.149 52.815 C 158.886 50.664,158.811 50.586,158.643 51.280 C 158.546 51.682,157.829 54.017,157.050 56.470 L 155.633 60.929 154.276 60.529 C 141.642 56.801,137.397 45.455,145.025 35.806 C 146.678 33.713,147.744 33.254,152.837 32.437 C 153.790 32.284,156.534 31.467,158.933 30.621 C 161.332 29.776,163.364 29.077,163.450 29.068 C 163.535 29.060,163.507 29.724,163.388 30.545 M226.790 32.220 C 222.908 34.094,222.676 43.043,226.383 47.907 L 227.012 48.732 228.616 47.802 C 233.362 45.050,233.335 45.087,235.158 39.040 C 235.803 36.900,236.390 34.955,236.463 34.718 C 236.562 34.397,236.379 34.240,235.743 34.105 C 235.274 34.004,233.454 33.469,231.700 32.914 C 228.345 31.855,227.728 31.767,226.790 32.220 M256.500 35.798 C 256.821 37.396,256.615 40.615,256.107 41.940 C 256.014 42.183,256.758 41.923,258.132 41.232 C 260.853 39.864,264.468 38.459,265.825 38.242 C 269.134 37.713,271.585 41.903,270.258 45.820 C 269.914 46.838,269.752 47.632,269.900 47.584 C 272.321 46.800,279.179 45.122,280.132 45.081 C 281.684 45.013,282.035 45.282,283.066 47.324 C 283.502 48.188,284.333 49.568,284.914 50.391 L 285.969 51.887 285.332 52.322 C 282.356 54.354,278.740 58.949,276.656 63.350 C 275.128 66.575,275.066 66.407,277.791 66.407 C 280.062 66.407,280.097 66.417,280.223 67.076 C 280.376 67.878,280.898 67.665,274.629 69.361 C 268.839 70.927,269.157 70.992,269.497 68.298 C 270.047 63.948,271.756 60.128,275.528 54.819 C 277.806 51.613,277.818 51.589,277.429 50.837 C 276.431 48.908,275.381 48.651,272.272 49.575 C 268.113 50.811,267.554 51.399,264.942 57.288 C 262.242 63.377,262.926 62.858,256.446 63.725 L 255.175 63.894 255.876 62.751 C 256.812 61.225,260.830 53.241,262.466 49.658 C 264.103 46.073,264.498 43.754,263.518 43.492 C 261.002 42.818,256.186 44.466,254.603 46.542 C 252.730 48.997,251.144 54.660,251.726 56.809 C 251.890 57.416,251.731 57.548,249.280 58.841 C 246.236 60.447,246.186 60.443,245.441 58.498 C 244.605 56.311,244.639 56.152,247.730 48.001 C 249.621 43.016,250.584 40.129,250.584 39.446 L 250.584 38.415 248.325 39.454 L 246.066 40.493 245.607 39.896 C 244.975 39.075,244.969 39.088,246.496 37.872 C 248.174 36.536,251.496 34.903,253.569 34.396 C 256.006 33.800,256.108 33.849,256.500 35.798 M152.918 37.258 C 152.062 37.467,150.258 37.806,148.908 38.010 C 145.449 38.535,145.136 38.874,145.137 42.094 C 145.139 46.164,147.350 49.793,151.314 52.235 C 154.322 54.087,154.069 54.167,155.879 50.790 C 157.874 47.066,157.889 47.427,155.359 37.808 C 155.074 36.725,155.090 36.728,152.918 37.258 M194.658 40.941 C 192.451 42.372,190.754 44.108,188.209 47.536 L 187.487 48.508 192.057 48.508 L 196.628 48.508 196.628 44.228 C 196.628 41.874,196.529 39.948,196.409 39.948 C 196.288 39.948,195.500 40.395,194.658 40.941 M96.068 49.271 C 96.675 49.502,96.695 49.575,96.451 50.633 C 96.028 52.459,96.337 54.812,97.241 56.648 C 98.680 59.570,98.449 59.567,102.976 56.701 C 105.135 55.334,106.944 54.215,106.994 54.215 C 107.045 54.215,107.225 55.036,107.394 56.039 C 107.796 58.421,107.631 58.662,104.177 60.733 L 101.470 62.356 102.820 63.928 C 103.563 64.792,104.845 66.338,105.668 67.364 C 108.677 71.110,112.041 73.710,114.672 74.325 C 115.319 74.476,115.356 74.411,116.073 71.844 C 116.983 68.587,118.433 66.688,118.961 68.063 C 119.193 68.668,117.995 80.008,117.675 80.235 C 117.513 80.350,116.319 80.396,115.023 80.338 C 110.403 80.131,107.659 78.093,99.529 68.831 L 96.988 65.937 94.881 68.182 C 93.723 69.417,92.684 70.465,92.574 70.510 C 92.331 70.610,91.126 68.291,91.047 67.571 C 90.938 66.576,91.063 66.349,92.611 64.738 L 94.171 63.113 93.508 61.666 C 92.013 58.400,92.224 54.719,94.166 50.188 C 94.679 48.992,94.967 48.853,96.068 49.271 M297.687 55.407 C 298.076 57.481,297.608 59.740,296.070 63.220 C 295.991 63.399,296.864 63.187,298.095 62.728 C 302.536 61.073,307.391 61.385,307.773 63.350 C 307.864 63.819,308.240 64.939,308.609 65.840 C 309.376 67.709,309.402 67.661,307.134 68.537 C 303.851 69.805,303.407 69.676,302.048 67.058 C 301.144 65.316,300.779 65.185,298.105 65.643 C 294.114 66.325,292.492 67.536,288.651 72.702 C 287.620 74.088,287.385 75.458,287.930 76.893 C 288.221 77.657,288.407 77.583,284.600 78.219 C 281.714 78.702,282.111 78.990,281.437 75.923 L 280.882 73.399 282.659 71.429 C 286.837 66.797,289.220 63.559,290.885 60.253 C 292.198 57.646,292.168 57.490,290.402 57.687 C 285.707 58.213,286.208 58.247,285.752 57.365 C 285.274 56.441,285.310 56.408,287.583 55.666 C 289.869 54.920,292.381 54.524,294.995 54.499 L 297.512 54.475 297.687 55.407 M78.635 65.804 C 81.375 68.545,78.379 73.930,74.114 73.930 C 69.439 73.930,69.121 67.929,73.671 65.551 C 75.598 64.543,77.469 64.639,78.635 65.804 M74.284 67.424 C 72.696 68.392,72.165 70.033,73.037 71.278 C 74.146 72.862,77.562 71.019,77.562 68.837 C 77.562 67.114,75.940 66.414,74.284 67.424 M89.745 68.261 C 90.313 69.580,90.328 70.086,89.871 72.292 C 89.564 73.772,94.543 79.703,98.673 82.777 C 101.197 84.656,100.935 84.697,101.714 82.296 C 102.360 80.304,102.375 80.285,103.258 80.285 L 104.150 80.285 104.347 85.084 C 104.455 87.724,104.572 90.175,104.606 90.532 C 104.731 91.817,101.114 90.960,97.663 88.886 L 95.776 87.751 96.509 90.503 C 98.396 97.582,98.385 98.650,96.416 99.213 C 87.105 101.877,78.206 97.826,76.360 90.083 C 74.721 83.210,76.020 79.046,81.024 75.133 C 82.200 74.213,84.405 72.027,85.992 70.206 C 89.304 66.407,89.012 66.558,89.745 68.261 M316.472 73.415 C 320.359 73.816,320.229 73.754,321.652 75.863 C 324.087 79.471,327.131 82.950,330.576 86.059 L 332.359 87.667 331.614 87.959 C 330.254 88.493,327.770 88.566,326.837 88.101 C 325.628 87.497,325.203 87.560,323.126 88.651 C 320.033 90.275,314.366 94.720,313.073 96.536 L 312.534 97.292 314.648 98.243 C 316.788 99.206,317.157 99.776,316.246 100.713 C 316.082 100.882,305.065 99.940,304.846 99.738 C 304.579 99.492,306.646 95.368,307.812 93.818 C 309.487 91.591,309.603 91.707,306.185 92.180 C 298.448 93.251,297.757 93.076,297.424 89.964 C 296.671 82.933,300.883 75.286,306.485 73.515 C 307.745 73.116,313.060 73.063,316.472 73.415 M311.127 76.103 C 307.083 78.041,304.731 81.558,304.162 86.519 C 303.893 88.868,304.197 89.060,308.383 89.187 L 311.673 89.286 313.325 88.417 C 315.056 87.506,320.857 83.290,320.873 82.930 C 320.878 82.816,320.261 81.940,319.503 80.985 C 318.744 80.029,317.636 78.525,317.039 77.642 C 315.187 74.899,314.185 74.638,311.127 76.103 M83.356 79.440 C 77.607 84.540,77.634 84.495,78.826 87.041 C 80.654 90.947,85.171 93.385,90.579 93.385 C 93.341 93.385,93.492 93.138,93.258 89.011 C 93.034 85.065,93.496 85.906,89.063 81.383 L 85.390 77.635 83.356 79.440 M270.298 85.710 C 270.298 97.054,269.232 122.981,268.329 133.593 C 267.122 147.783,264.430 158.889,259.925 168.270 C 256.609 175.174,250.425 185.103,247.483 188.247 C 244.556 191.376,244.113 192.546,245.112 194.506 C 245.762 195.779,251.250 204.661,252.875 207.070 C 259.914 217.501,260.979 230.641,256.919 256.939 C 254.710 271.241,253.871 272.010,227.108 284.232 C 218.631 288.104,215.427 288.878,213.961 287.412 L 213.175 286.626 213.362 282.392 C 213.677 275.245,215.174 275.009,198.835 284.681 C 191.933 288.766,190.772 289.235,188.839 288.714 C 185.350 287.775,184.700 283.823,185.898 270.817 C 186.131 268.289,186.089 268.260,179.767 266.523 C 163.590 262.080,153.093 253.775,149.288 242.412 C 142.164 221.138,170.811 190.182,199.481 188.175 C 201.232 188.053,202.190 187.855,202.790 187.494 L 203.635 186.985 203.093 186.223 C 202.322 185.141,201.512 184.774,186.381 178.655 C 165.400 170.170,154.642 162.098,142.398 145.655 C 133.391 133.559,129.140 125.086,126.202 113.367 C 121.586 94.960,121.301 90.939,124.681 91.872 C 131.970 93.885,158.068 109.512,169.390 118.643 C 184.797 131.069,195.114 142.585,213.541 167.928 C 225.661 184.597,226.129 184.931,225.424 176.416 C 225.040 171.787,225.201 154.586,225.666 150.454 C 227.786 131.644,236.740 112.452,251.383 95.331 C 257.102 88.644,268.759 77.581,270.104 77.564 C 270.211 77.563,270.298 81.228,270.298 85.710 M331.599 90.042 C 331.911 90.201,332.880 91.028,333.752 91.880 L 335.338 93.430 336.476 93.044 C 341.071 91.488,349.935 94.213,349.935 97.182 C 349.935 97.909,349.803 97.922,347.925 97.376 C 345.746 96.743,342.461 96.974,340.532 97.897 C 338.716 98.766,338.622 98.146,341.345 103.243 C 343.996 108.203,343.991 107.913,341.424 107.908 C 338.904 107.903,339.134 108.101,337.227 104.280 C 336.337 102.497,335.575 101.001,335.534 100.955 C 335.493 100.910,333.440 102.077,330.970 103.549 C 325.792 106.636,323.517 108.624,322.224 111.191 L 321.422 112.783 324.200 114.011 C 330.808 116.931,329.847 118.367,322.568 116.451 C 315.360 114.553,315.175 114.456,315.175 112.575 C 315.175 108.111,317.171 105.771,326.052 99.820 C 329.272 97.663,331.953 95.860,332.009 95.815 C 332.065 95.769,331.094 94.623,329.850 93.269 L 327.590 90.806 328.451 90.281 C 329.404 89.700,330.730 89.599,331.599 90.042 M68.655 91.866 C 69.569 93.339,69.735 94.168,69.411 95.634 C 69.102 97.029,75.516 102.231,80.234 104.411 C 82.867 105.627,82.915 105.618,83.119 103.826 C 83.445 100.970,83.473 100.908,84.439 100.908 C 85.042 100.908,85.351 101.047,85.447 101.362 C 85.671 102.097,87.678 111.257,87.678 111.542 C 87.678 112.142,83.600 111.826,81.140 111.035 C 79.826 110.612,78.715 110.304,78.670 110.349 C 78.625 110.394,79.466 112.482,80.539 114.990 C 81.612 117.497,82.490 119.770,82.490 120.040 C 82.490 121.849,76.639 124.035,71.725 124.062 C 63.286 124.107,59.219 120.044,57.715 110.066 C 57.117 106.104,57.089 106.229,59.192 103.614 C 61.705 100.489,63.771 97.265,65.705 93.451 C 67.524 89.863,67.439 89.909,68.655 91.866 M57.322 91.776 C 58.912 92.940,59.296 95.230,58.265 97.406 C 56.380 101.387,51.538 102.476,50.179 99.224 C 48.374 94.904,53.827 89.217,57.322 91.776 M53.763 93.812 C 51.413 94.971,51.252 98.833,53.555 98.833 C 55.858 98.833,57.682 95.531,56.199 94.048 C 55.433 93.283,54.935 93.234,53.763 93.812 M64.288 104.726 C 59.869 110.704,59.774 110.966,61.226 113.158 C 63.497 116.586,69.220 118.335,74.036 117.072 C 76.813 116.344,76.934 116.067,76.154 112.244 C 75.353 108.319,75.502 108.506,70.459 105.095 L 66.164 102.189 64.288 104.726 M341.684 116.116 C 344.261 117.041,346.801 118.332,349.311 119.992 C 352.192 121.896,352.104 121.730,351.491 124.127 C 350.868 126.562,350.819 129.632,351.358 132.449 C 351.830 134.912,351.995 134.781,349.361 134.039 C 347.376 133.480,346.616 133.045,341.286 129.422 C 333.490 124.120,334.203 124.503,333.575 125.292 C 331.670 127.684,330.583 131.355,331.440 132.503 C 331.697 132.848,333.717 134.122,335.928 135.334 C 338.139 136.546,339.981 137.568,340.020 137.605 C 340.528 138.073,339.450 139.045,338.588 138.897 C 334.967 138.274,326.241 134.490,325.374 133.167 C 324.078 131.190,326.257 124.121,329.182 120.810 C 332.794 116.722,337.965 114.780,341.684 116.116 M341.764 120.656 C 340.624 120.921,336.703 122.688,336.710 122.933 C 336.713 123.018,338.143 124.099,339.888 125.336 C 341.633 126.574,343.732 128.069,344.553 128.658 L 346.044 129.730 346.044 125.047 L 346.044 120.363 344.423 120.389 C 343.531 120.404,342.335 120.524,341.764 120.656 M52.206 127.870 C 53.243 130.163,52.734 132.704,50.673 135.522 C 49.454 137.189,49.409 137.343,49.820 138.440 C 50.437 140.084,53.089 142.847,53.580 142.356 C 53.654 142.282,53.778 141.010,53.856 139.529 C 54.021 136.402,54.291 135.516,55.225 135.036 C 56.875 134.187,66.377 131.440,69.582 130.885 C 70.884 130.659,71.087 130.180,70.807 128.003 C 70.679 127.011,70.571 126.126,70.566 126.037 C 70.555 125.828,72.093 125.184,72.243 125.334 C 73.011 126.102,75.918 135.938,75.412 136.056 C 75.096 136.130,73.273 136.541,71.360 136.970 C 66.188 138.129,57.951 140.591,57.339 141.161 C 55.724 142.666,57.034 143.795,61.648 144.872 C 65.233 145.709,67.705 146.913,69.458 148.674 C 71.102 150.327,71.096 150.020,69.532 153.133 C 67.650 156.878,67.087 159.582,67.234 164.177 L 67.349 167.773 65.914 167.279 C 64.088 166.651,63.172 165.767,62.507 163.990 C 61.315 160.802,59.535 158.885,56.381 157.391 L 54.604 156.550 48.379 156.420 C 40.679 156.260,40.745 156.296,37.703 150.578 C 32.849 141.452,33.324 135.279,39.390 128.664 L 40.936 126.978 41.731 128.734 C 43.406 132.438,43.325 133.281,41.053 135.781 C 38.165 138.958,36.816 142.415,37.747 144.254 C 39.352 147.425,40.362 147.908,45.914 148.159 C 49.150 148.306,50.780 148.508,52.594 148.987 C 55.328 149.710,55.250 149.782,54.471 147.260 L 53.948 145.568 52.078 144.834 C 45.741 142.348,42.988 136.351,46.256 132.150 C 47.275 130.839,49.027 127.160,49.027 126.330 C 49.027 126.206,49.148 125.785,49.297 125.395 L 49.566 124.687 50.626 125.703 C 51.208 126.261,51.919 127.237,52.206 127.870 M353.468 139.185 C 356.221 140.894,359.386 143.714,359.484 144.544 C 359.672 146.150,357.382 148.835,354.430 150.470 L 352.851 151.345 354.587 152.021 C 357.010 152.964,358.920 154.302,361.065 156.560 C 363.128 158.731,363.250 159.157,362.417 161.274 C 362.149 161.957,361.791 163.185,361.622 164.003 C 361.223 165.932,361.258 165.923,358.629 164.786 C 355.173 163.291,354.716 162.387,355.832 159.246 C 357.078 155.738,350.510 151.904,345.006 152.925 C 339.337 153.977,338.850 154.275,337.901 157.268 C 337.777 157.659,337.419 157.492,335.480 156.138 C 334.228 155.264,332.999 154.417,332.750 154.255 C 332.121 153.848,332.158 153.636,333.323 150.934 C 334.531 148.132,334.445 148.201,336.952 147.984 C 341.918 147.554,350.710 145.151,352.498 143.734 L 353.569 142.886 351.039 140.936 C 348.457 138.946,348.248 138.615,348.750 137.307 C 348.930 136.838,351.043 137.680,353.468 139.185 M57.176 147.358 C 57.619 150.697,61.418 159.014,62.500 159.014 C 62.645 159.014,65.345 149.471,65.468 148.525 C 65.485 148.392,63.588 147.785,61.253 147.178 L 57.006 146.073 57.176 147.358 M178.797 208.445 C 173.932 210.870,172.641 217.717,176.410 221.106 C 179.785 224.141,186.271 223.337,188.454 219.613 C 192.133 213.335,185.162 205.274,178.797 208.445 M250.281 283.117 C 252.999 284.522,251.887 287.523,247.584 290.396 C 245.158 292.016,221.856 300.939,218.300 301.609 C 213.144 302.582,211.008 300.892,212.835 297.286 C 214.515 293.972,214.699 293.878,229.313 288.908 C 249.127 282.169,248.685 282.291,250.281 283.117 M206.416 286.233 C 207.645 287.268,207.763 288.149,208.302 300.315 C 208.813 311.848,208.805 312.334,208.092 313.165 C 206.837 314.626,204.890 313.629,200.389 309.221 C 191.285 300.305,190.497 300.144,182.325 305.515 C 174.178 310.871,174.379 311.048,171.481 295.979 C 169.265 284.453,170.368 283.987,184.176 290.618 C 189.523 293.186,193.095 293.062,196.526 290.192 C 200.620 286.767,204.978 285.023,206.416 286.233 M103.480 307.370 C 109.287 309.489,112.468 313.589,113.330 320.064 C 113.643 322.422,113.518 322.333,115.197 321.402 C 118.827 319.390,128.095 317.729,127.534 319.192 C 126.474 321.954,126.612 325.658,127.849 327.647 L 128.720 329.048 127.388 330.273 C 126.013 331.537,123.626 332.500,119.761 333.351 L 118.251 333.684 120.467 334.769 C 128.155 338.533,130.831 344.717,126.547 348.819 C 124.970 350.328,123.122 350.929,114.997 352.574 L 107.314 354.128 106.251 353.336 C 98.915 347.869,90.024 343.282,80.221 339.907 C 77.770 339.063,77.690 338.896,79.141 337.654 C 80.684 336.333,82.197 336.034,84.708 336.554 C 96.044 338.898,106.191 331.954,100.651 325.644 C 99.490 324.322,99.590 324.254,102.693 324.254 L 105.516 324.254 105.806 323.102 C 107.419 316.697,104.019 311.881,97.257 310.990 C 94.220 310.590,94.336 310.646,94.781 309.797 C 96.350 306.802,99.509 305.920,103.480 307.370 M309.883 326.719 C 308.669 329.144,306.946 332.515,306.053 334.209 L 304.430 337.290 305.198 337.910 C 307.001 339.366,312.123 340.120,313.317 339.105 C 313.611 338.855,314.772 336.492,315.896 333.852 C 317.882 329.188,317.961 329.053,318.697 329.053 L 319.455 329.053 319.376 330.869 C 319.178 335.436,316.400 343.711,314.550 345.247 C 313.796 345.872,305.047 345.489,303.113 344.746 C 296.535 342.219,292.929 332.713,296.159 326.411 C 296.876 325.011,297.908 322.815,298.452 321.530 C 298.996 320.246,299.472 319.155,299.510 319.104 C 299.547 319.054,300.704 319.215,302.079 319.463 C 305.148 320.015,306.827 319.888,309.729 318.882 L 311.933 318.117 312.011 320.213 L 312.089 322.309 309.883 326.719 M156.701 321.904 C 158.665 322.650,160.680 324.110,161.740 325.554 C 162.914 327.154,162.908 327.182,161.154 328.164 C 160.334 328.623,159.288 329.222,158.830 329.495 L 157.996 329.991 157.607 329.059 C 156.193 325.675,151.626 322.261,150.399 323.671 C 147.682 326.791,145.244 333.757,139.419 355.047 C 138.884 357.002,138.997 357.523,140.343 359.309 L 141.391 360.700 139.243 361.700 C 138.061 362.250,136.600 362.916,135.996 363.181 L 134.898 363.662 133.078 361.095 C 130.910 358.038,130.963 358.858,132.666 354.755 C 133.440 352.889,134.673 349.377,135.407 346.952 C 136.141 344.527,137.385 340.509,138.172 338.024 C 138.959 335.538,139.824 332.641,140.094 331.584 C 141.899 324.528,150.465 319.534,156.701 321.904 M117.110 323.319 C 114.358 323.988,113.632 324.617,112.141 327.628 C 108.921 334.131,104.443 337.262,96.187 338.781 C 94.575 339.077,92.967 339.382,92.615 339.459 C 92.104 339.569,92.605 339.858,95.079 340.880 C 101.479 343.522,105.913 345.967,110.207 349.221 L 112.631 351.059 114.487 350.463 C 125.301 346.991,123.995 339.757,112.044 336.922 C 109.808 336.391,108.690 336.010,108.690 335.778 C 108.690 335.112,110.611 333.397,111.673 333.115 C 116.739 331.772,121.572 330.377,121.761 330.204 C 121.894 330.082,121.677 328.500,121.251 326.475 L 120.510 322.957 119.464 322.979 C 118.888 322.991,117.829 323.144,117.110 323.319 M305.447 324.932 C 305.019 324.974,303.414 325.084,301.881 325.175 L 299.092 325.342 299.092 326.319 C 299.092 328.672,300.225 332.060,301.710 334.145 L 302.264 334.923 305.118 330.172 C 306.688 327.559,308.030 325.276,308.100 325.097 C 308.225 324.778,307.491 324.732,305.447 324.932 M287.272 329.099 C 287.188 329.756,286.825 330.570,286.350 331.168 C 283.530 334.716,289.243 346.233,296.631 351.891 L 298.571 353.378 297.751 354.834 C 296.526 357.009,296.196 357.457,292.191 362.387 C 286.328 369.604,287.152 368.885,284.434 369.158 C 279.954 369.609,275.072 371.213,270.782 373.644 C 268.492 374.941,268.492 374.942,269.400 372.216 C 270.782 368.066,275.154 365.664,284.736 363.790 C 289.062 362.944,289.805 362.532,290.652 360.505 C 291.616 358.197,291.265 357.282,287.549 352.405 C 284.428 348.310,284.439 348.320,284.190 349.351 C 283.807 350.932,279.806 359.567,279.289 359.929 C 276.914 361.593,269.389 357.712,266.303 353.232 C 262.605 347.863,263.223 343.261,268.808 334.577 C 270.717 331.609,270.667 331.647,273.022 331.391 C 277.527 330.900,282.058 329.006,285.733 326.077 L 287.030 325.043 287.220 326.529 C 287.325 327.347,287.349 328.503,287.272 329.099 M221.922 329.368 C 221.548 330.764,221.183 332.109,221.110 332.357 C 220.978 332.811,213.812 337.893,213.601 337.682 C 212.774 336.856,215.756 332.375,219.435 328.915 C 222.831 325.722,222.896 325.734,221.922 329.368 M198.054 327.248 C 199.873 327.537,203.140 328.949,204.196 329.903 L 205.209 330.819 204.485 331.582 C 202.337 333.846,200.734 335.005,200.451 334.499 C 198.814 331.575,193.287 329.001,191.433 330.300 C 188.753 332.177,187.907 335.730,187.140 348.331 L 186.961 351.267 188.924 349.329 C 191.773 346.517,196.448 343.450,197.886 343.450 C 198.434 343.450,203.369 352.051,203.104 352.545 C 202.675 353.348,201.234 354.295,199.378 354.993 C 196.146 356.209,195.340 356.708,196.109 357.017 C 200.722 358.872,202.608 360.662,204.308 364.801 C 205.079 366.678,205.454 366.885,206.744 366.148 C 207.713 365.594,208.654 365.679,209.311 366.378 L 209.892 366.997 205.919 369.073 C 201.835 371.206,198.252 373.022,198.126 373.022 C 198.087 373.022,198.051 371.709,198.048 370.104 C 198.034 364.235,194.965 360.835,188.600 359.635 C 186.012 359.146,186.267 358.864,186.084 362.416 L 185.932 365.370 186.870 366.586 C 188.056 368.124,188.246 367.752,185.044 370.163 C 181.723 372.663,182.244 372.646,180.320 370.320 C 178.444 368.052,178.487 368.465,179.505 362.439 C 180.188 358.398,181.144 349.852,182.109 339.170 L 182.414 335.798 184.486 333.787 C 187.125 331.226,190.477 328.541,191.889 327.857 C 193.734 326.964,195.293 326.810,198.054 327.248 M277.173 335.683 C 276.602 335.801,274.851 336.092,273.281 336.330 C 269.296 336.933,268.738 337.535,268.745 341.226 C 268.755 346.384,274.166 353.307,278.187 353.307 C 278.761 353.307,282.892 346.149,282.818 345.282 C 282.788 344.933,280.421 338.202,279.597 336.122 C 279.294 335.356,279.006 335.304,277.173 335.683 M248.607 339.476 C 250.211 340.081,250.854 340.174,253.501 340.190 L 256.549 340.208 256.551 344.099 C 256.555 349.950,257.301 353.346,259.415 357.142 L 260.467 359.030 262.417 357.360 C 264.368 355.689,265.485 355.134,265.954 355.603 C 266.242 355.892,258.958 366.537,258.472 366.537 C 258.305 366.537,257.425 365.748,256.517 364.785 C 253.549 361.638,252.101 357.999,251.107 351.187 C 250.809 349.143,250.513 347.227,250.450 346.930 C 250.354 346.473,249.988 346.327,248.093 345.990 C 245.124 345.461,245.198 345.423,242.984 348.599 C 239.804 353.159,240.067 352.435,240.451 355.580 C 241.074 360.680,241.532 362.083,243.018 363.453 L 244.315 364.649 242.098 367.344 C 239.384 370.642,239.862 370.517,237.236 368.620 L 235.035 367.032 235.193 364.627 C 235.388 361.660,233.382 348.261,232.624 347.471 C 232.462 347.301,231.730 347.907,230.511 349.222 C 228.598 351.284,228.027 351.558,227.203 350.812 C 226.350 350.040,228.668 346.391,232.257 342.856 L 234.579 340.568 235.600 341.555 C 236.746 342.663,237.626 344.245,238.639 347.014 L 239.326 348.892 241.741 344.873 C 245.841 338.050,245.510 338.310,248.607 339.476 M167.009 342.448 C 168.475 344.016,170.995 345.518,173.022 346.033 C 173.664 346.196,174.343 346.381,174.531 346.444 C 174.758 346.521,174.410 347.126,173.493 348.253 C 171.962 350.133,169.699 351.418,161.154 355.259 C 158.837 356.301,157.198 357.184,157.198 357.393 C 157.198 358.763,160.065 362.756,161.629 363.565 C 162.876 364.209,163.449 364.018,167.955 361.456 C 174.531 357.719,175.583 358.833,170.059 363.684 C 165.072 368.063,160.611 370.111,158.582 368.952 C 148.363 363.114,147.368 348.685,156.854 343.876 C 157.828 343.382,159.968 342.210,161.608 341.271 L 164.591 339.564 165.110 340.268 C 165.396 340.655,166.250 341.636,167.009 342.448 M219.974 343.066 C 222.977 343.316,222.818 343.154,222.213 345.333 C 221.356 348.426,221.443 355.011,222.418 360.765 L 223.176 365.239 224.623 364.427 C 225.419 363.980,226.506 363.271,227.038 362.852 C 228.005 362.092,228.227 362.091,229.104 362.843 C 229.534 363.211,226.098 366.838,221.043 371.351 L 219.907 372.365 218.914 371.245 C 216.330 368.334,214.896 355.822,216.524 350.396 C 217.116 348.423,217.102 348.379,215.897 348.379 C 214.779 348.379,213.690 348.941,213.118 349.814 C 211.578 352.165,210.541 352.838,209.634 352.075 L 209.093 351.621 210.318 349.575 C 212.504 345.924,216.026 342.538,217.380 342.785 C 217.737 342.851,218.904 342.977,219.974 343.066 M159.304 345.816 C 158.010 347.791,156.447 353.161,157.004 353.718 C 157.082 353.796,159.555 352.908,162.500 351.745 L 167.855 349.630 164.221 347.059 C 159.957 344.042,160.393 344.152,159.304 345.816 M193.064 350.175 C 189.213 352.298,185.410 356.474,186.422 357.469 C 186.617 357.660,196.878 353.922,197.291 353.509 C 197.459 353.341,194.844 349.412,194.570 349.421 C 194.489 349.424,193.811 349.763,193.064 350.175 " stroke="none" fill="#040404" fill-rule="evenodd"></path><path id="path2" d="M191.770 26.200 C 191.770 26.842,191.820 27.104,191.882 26.783 C 191.944 26.462,191.944 25.937,191.882 25.616 C 191.820 25.295,191.770 25.558,191.770 26.200 M196.734 44.099 C 196.734 46.595,196.773 47.617,196.821 46.368 C 196.868 45.120,196.868 43.077,196.821 41.829 C 196.773 40.580,196.734 41.602,196.734 44.099 M141.186 46.952 C 141.186 47.594,141.237 47.857,141.299 47.536 C 141.360 47.215,141.360 46.689,141.299 46.368 C 141.237 46.047,141.186 46.310,141.186 46.952 M92.858 64.527 L 91.440 66.018 92.931 64.600 C 94.317 63.283,94.542 63.035,94.349 63.035 C 94.309 63.035,93.637 63.706,92.858 64.527 M95.071 79.896 C 95.629 80.467,96.143 80.934,96.214 80.934 C 96.286 80.934,95.888 80.467,95.331 79.896 C 94.773 79.326,94.259 78.859,94.188 78.859 C 94.116 78.859,94.514 79.326,95.071 79.896 M104.081 81.193 C 104.081 81.693,104.134 81.897,104.200 81.647 C 104.265 81.398,104.265 80.989,104.200 80.739 C 104.134 80.490,104.081 80.694,104.081 81.193 M91.310 83.658 C 91.794 84.157,92.248 84.565,92.320 84.565 C 92.391 84.565,92.053 84.157,91.569 83.658 C 91.085 83.158,90.631 82.750,90.560 82.750 C 90.488 82.750,90.826 83.158,91.310 83.658 M104.081 85.603 C 104.081 86.102,104.134 86.307,104.200 86.057 C 104.265 85.807,104.265 85.399,104.200 85.149 C 104.134 84.899,104.081 85.104,104.081 85.603 M259.138 87.095 L 256.939 89.364 259.209 87.165 C 261.317 85.123,261.597 84.825,261.408 84.825 C 261.369 84.825,260.348 85.846,259.138 87.095 M270.117 93.645 C 270.117 94.429,270.165 94.750,270.225 94.358 C 270.284 93.966,270.284 93.324,270.225 92.931 C 270.165 92.539,270.117 92.860,270.117 93.645 M122.521 94.942 C 122.521 95.869,122.569 96.248,122.626 95.785 C 122.684 95.321,122.684 94.562,122.626 94.099 C 122.569 93.635,122.521 94.014,122.521 94.942 M269.840 100.649 C 269.840 101.148,269.893 101.352,269.958 101.102 C 270.024 100.853,270.024 100.444,269.958 100.195 C 269.893 99.945,269.840 100.149,269.840 100.649 M269.580 106.874 C 269.580 107.374,269.634 107.578,269.699 107.328 C 269.764 107.078,269.764 106.670,269.699 106.420 C 269.634 106.171,269.580 106.375,269.580 106.874 M269.321 113.619 C 269.321 114.118,269.374 114.322,269.440 114.073 C 269.505 113.823,269.505 113.414,269.440 113.165 C 269.374 112.915,269.321 113.119,269.321 113.619 M70.104 117.689 C 70.353 117.754,70.762 117.754,71.012 117.689 C 71.261 117.623,71.057 117.570,70.558 117.570 C 70.058 117.570,69.854 117.623,70.104 117.689 M329.688 120.298 L 328.794 121.271 329.767 120.377 C 330.302 119.885,330.739 119.448,330.739 119.404 C 330.739 119.206,330.520 119.393,329.688 120.298 M40.062 127.951 L 39.300 128.794 40.143 128.032 C 40.606 127.613,40.986 127.233,40.986 127.189 C 40.986 126.988,40.772 127.165,40.062 127.951 M350.791 128.405 C 350.791 129.189,350.840 129.510,350.899 129.118 C 350.959 128.726,350.959 128.084,350.899 127.691 C 350.840 127.299,350.791 127.620,350.791 128.405 M325.098 131.647 C 325.101 132.218,325.154 132.421,325.216 132.098 C 325.278 131.775,325.276 131.309,325.211 131.061 C 325.146 130.813,325.095 131.077,325.098 131.647 M41.099 135.473 L 40.337 136.316 41.180 135.555 C 41.966 134.844,42.143 134.630,41.942 134.630 C 41.898 134.630,41.518 135.010,41.099 135.473 M43.904 156.352 C 44.582 156.405,45.691 156.405,46.368 156.352 C 47.046 156.298,46.492 156.254,45.136 156.254 C 43.781 156.254,43.226 156.298,43.904 156.352 M152.659 157.717 C 153.362 158.431,153.995 159.014,154.066 159.014 C 154.137 159.014,153.621 158.431,152.918 157.717 C 152.216 157.004,151.582 156.420,151.511 156.420 C 151.440 156.420,151.956 157.004,152.659 157.717 M225.254 161.219 C 225.253 162.503,225.297 163.061,225.352 162.459 C 225.406 161.857,225.407 160.807,225.353 160.125 C 225.300 159.443,225.255 159.935,225.254 161.219 M157.328 254.734 C 158.031 255.447,158.664 256.031,158.735 256.031 C 158.807 256.031,158.290 255.447,157.588 254.734 C 156.885 254.021,156.252 253.437,156.180 253.437 C 156.109 253.437,156.626 254.021,157.328 254.734 M213.563 279.248 C 213.565 279.961,213.615 280.222,213.675 279.828 C 213.735 279.434,213.733 278.850,213.672 278.531 C 213.610 278.212,213.561 278.534,213.563 279.248 M207.842 293.126 C 207.842 293.625,207.896 293.829,207.961 293.580 C 208.026 293.330,208.026 292.922,207.961 292.672 C 207.896 292.422,207.842 292.626,207.842 293.126 M208.102 299.351 C 208.102 299.851,208.155 300.055,208.220 299.805 C 208.286 299.556,208.286 299.147,208.220 298.898 C 208.155 298.648,208.102 298.852,208.102 299.351 M208.361 305.577 C 208.361 306.077,208.414 306.281,208.480 306.031 C 208.545 305.781,208.545 305.373,208.480 305.123 C 208.414 304.874,208.361 305.078,208.361 305.577 M199.351 308.171 C 200.054 308.885,200.687 309.468,200.759 309.468 C 200.830 309.468,200.314 308.885,199.611 308.171 C 198.908 307.458,198.275 306.874,198.204 306.874 C 198.132 306.874,198.649 307.458,199.351 308.171 M268.553 341.375 C 268.553 342.017,268.604 342.280,268.666 341.958 C 268.727 341.637,268.727 341.112,268.666 340.791 C 268.604 340.470,268.553 340.733,268.553 341.375 M293.115 348.962 C 294.190 350.108,294.423 350.314,294.423 350.119 C 294.423 350.077,293.868 349.523,293.191 348.887 L 291.958 347.730 293.115 348.962 M272.374 350.065 C 272.858 350.564,273.312 350.973,273.383 350.973 C 273.455 350.973,273.117 350.564,272.633 350.065 C 272.149 349.565,271.695 349.157,271.623 349.157 C 271.552 349.157,271.890 349.565,272.374 350.065 M221.356 351.621 C 221.357 352.620,221.404 352.997,221.460 352.459 C 221.517 351.920,221.516 351.103,221.458 350.643 C 221.401 350.182,221.355 350.623,221.356 351.621 M215.884 355.383 C 215.884 355.882,215.937 356.086,216.002 355.837 C 216.068 355.587,216.068 355.178,216.002 354.929 C 215.937 354.679,215.884 354.883,215.884 355.383 M215.889 357.847 C 215.892 358.418,215.945 358.621,216.007 358.298 C 216.069 357.975,216.067 357.508,216.002 357.260 C 215.937 357.012,215.886 357.276,215.889 357.847 M185.811 363.943 C 185.811 364.728,185.859 365.049,185.919 364.656 C 185.978 364.264,185.978 363.622,185.919 363.230 C 185.859 362.837,185.811 363.158,185.811 363.943 M224.238 368.158 L 223.476 369.001 224.319 368.239 C 224.783 367.820,225.162 367.441,225.162 367.396 C 225.162 367.196,224.948 367.372,224.238 368.158 " stroke="none" fill="#848484" fill-rule="evenodd"></path><path id="path3" d="" stroke="none" fill="#747474" fill-rule="evenodd"></path><path id="path4" d="M196.688 33.982 C 196.688 34.481,196.741 34.685,196.807 34.436 C 196.872 34.186,196.872 33.778,196.807 33.528 C 196.741 33.278,196.688 33.482,196.688 33.982 M221.125 34.047 L 220.363 34.890 221.206 34.128 C 221.670 33.709,222.049 33.329,222.049 33.285 C 222.049 33.084,221.835 33.261,221.125 34.047 M256.615 37.743 C 256.618 38.314,256.671 38.517,256.733 38.194 C 256.795 37.871,256.793 37.405,256.728 37.157 C 256.663 36.908,256.612 37.173,256.615 37.743 M113.165 38.262 C 113.168 38.833,113.221 39.036,113.283 38.713 C 113.345 38.390,113.343 37.923,113.278 37.675 C 113.213 37.427,113.162 37.691,113.165 38.262 M250.644 39.170 C 250.644 39.669,250.697 39.874,250.762 39.624 C 250.828 39.374,250.828 38.966,250.762 38.716 C 250.697 38.466,250.644 38.671,250.644 39.170 M270.618 43.580 C 270.618 44.079,270.671 44.283,270.737 44.034 C 270.802 43.784,270.802 43.375,270.737 43.126 C 270.671 42.876,270.618 43.080,270.618 43.580 M198.788 45.525 C 198.789 46.524,198.836 46.901,198.892 46.363 C 198.948 45.824,198.948 45.007,198.890 44.547 C 198.833 44.086,198.787 44.527,198.788 45.525 M190.078 52.842 C 190.399 52.904,190.924 52.904,191.245 52.842 C 191.566 52.780,191.304 52.730,190.661 52.730 C 190.019 52.730,189.757 52.780,190.078 52.842 M282.217 54.929 L 281.323 55.901 282.296 55.007 C 283.201 54.175,283.388 53.956,283.190 53.956 C 283.146 53.956,282.709 54.394,282.217 54.929 M142.737 68.612 C 142.740 69.183,142.793 69.386,142.855 69.063 C 142.917 68.740,142.915 68.274,142.850 68.026 C 142.785 67.777,142.734 68.042,142.737 68.612 M269.261 69.894 C 269.261 70.242,269.356 70.586,269.473 70.658 C 269.590 70.731,269.635 70.446,269.573 70.025 C 269.437 69.098,269.261 69.024,269.261 69.894 M107.393 69.601 C 107.393 69.646,107.772 70.025,108.236 70.444 L 109.079 71.206 108.317 70.363 C 107.607 69.577,107.393 69.401,107.393 69.601 M88.197 80.545 C 89.404 81.757,90.449 82.750,90.520 82.750 C 90.592 82.750,89.663 81.757,88.457 80.545 C 87.250 79.332,86.205 78.340,86.133 78.340 C 86.062 78.340,86.991 79.332,88.197 80.545 M104.101 83.398 C 104.103 84.254,104.151 84.573,104.209 84.107 C 104.266 83.641,104.265 82.940,104.206 82.550 C 104.147 82.161,104.100 82.542,104.101 83.398 M262.516 83.658 C 261.886 84.300,261.429 84.825,261.500 84.825 C 261.572 84.825,262.146 84.300,262.776 83.658 C 263.406 83.016,263.863 82.490,263.792 82.490 C 263.720 82.490,263.146 83.016,262.516 83.658 M297.354 88.457 C 297.354 89.241,297.403 89.562,297.462 89.170 C 297.521 88.778,297.521 88.136,297.462 87.743 C 297.403 87.351,297.354 87.672,297.354 88.457 M93.186 88.197 C 93.186 88.696,93.239 88.901,93.305 88.651 C 93.370 88.401,93.370 87.993,93.305 87.743 C 93.239 87.494,93.186 87.698,93.186 88.197 M256.145 90.078 L 255.383 90.921 256.226 90.159 C 256.689 89.740,257.069 89.361,257.069 89.316 C 257.069 89.116,256.855 89.292,256.145 90.078 M309.014 89.414 C 309.264 89.479,309.673 89.479,309.922 89.414 C 310.172 89.348,309.968 89.295,309.468 89.295 C 308.969 89.295,308.765 89.348,309.014 89.414 M339.494 92.531 C 339.815 92.592,340.340 92.592,340.661 92.531 C 340.982 92.469,340.720 92.418,340.078 92.418 C 339.436 92.418,339.173 92.469,339.494 92.531 M270.104 95.850 C 270.107 96.420,270.160 96.623,270.222 96.300 C 270.284 95.978,270.282 95.511,270.217 95.263 C 270.152 95.015,270.101 95.279,270.104 95.850 M344.163 96.941 C 344.484 97.002,345.010 97.002,345.331 96.941 C 345.652 96.879,345.389 96.828,344.747 96.828 C 344.105 96.828,343.842 96.879,344.163 96.941 M90.600 100.056 C 90.995 100.116,91.578 100.114,91.897 100.053 C 92.216 99.991,91.894 99.943,91.180 99.944 C 90.467 99.946,90.206 99.997,90.600 100.056 M269.840 102.205 C 269.840 102.704,269.893 102.909,269.958 102.659 C 270.024 102.409,270.024 102.001,269.958 101.751 C 269.893 101.501,269.840 101.706,269.840 102.205 M341.375 107.652 L 339.170 107.815 341.295 107.863 C 342.487 107.891,343.490 107.798,343.580 107.652 C 343.668 107.510,343.704 107.415,343.660 107.441 C 343.616 107.468,342.588 107.563,341.375 107.652 M269.580 108.690 C 269.580 109.189,269.634 109.394,269.699 109.144 C 269.764 108.894,269.764 108.486,269.699 108.236 C 269.634 107.986,269.580 108.191,269.580 108.690 M269.321 115.175 C 269.321 115.674,269.374 115.879,269.440 115.629 C 269.505 115.379,269.505 114.971,269.440 114.721 C 269.374 114.471,269.321 114.676,269.321 115.175 M71.012 124.178 C 71.333 124.240,71.858 124.240,72.179 124.178 C 72.500 124.116,72.237 124.065,71.595 124.065 C 70.953 124.065,70.691 124.116,71.012 124.178 M183.658 131.647 C 185.294 133.288,186.691 134.630,186.762 134.630 C 186.833 134.630,185.553 133.288,183.917 131.647 C 182.281 130.006,180.884 128.664,180.813 128.664 C 180.741 128.664,182.022 130.006,183.658 131.647 M358.366 143.191 C 358.923 143.761,359.437 144.228,359.509 144.228 C 359.580 144.228,359.182 143.761,358.625 143.191 C 358.068 142.620,357.554 142.153,357.482 142.153 C 357.411 142.153,357.808 142.620,358.366 143.191 M43.774 148.307 C 44.238 148.365,44.997 148.365,45.460 148.307 C 45.924 148.249,45.545 148.202,44.617 148.202 C 43.690 148.202,43.311 148.249,43.774 148.307 M48.573 156.352 C 49.251 156.405,50.360 156.405,51.038 156.352 C 51.715 156.298,51.161 156.254,49.805 156.254 C 48.450 156.254,47.896 156.298,48.573 156.352 M225.236 157.847 C 225.238 158.560,225.289 158.821,225.348 158.427 C 225.408 158.033,225.406 157.449,225.345 157.130 C 225.283 156.811,225.234 157.134,225.236 157.847 M67.009 163.165 C 67.009 164.092,67.056 164.471,67.114 164.008 C 67.171 163.544,67.171 162.785,67.114 162.322 C 67.056 161.858,67.009 162.237,67.009 163.165 M163.286 205.512 L 161.738 207.134 163.359 205.585 C 164.251 204.734,164.981 204.004,164.981 203.964 C 164.981 203.772,164.725 204.006,163.286 205.512 M259.239 232.555 C 259.239 233.982,259.283 234.532,259.336 233.779 C 259.388 233.025,259.388 231.857,259.334 231.185 C 259.281 230.512,259.238 231.128,259.239 232.555 M185.301 280.934 C 185.301 282.004,185.347 282.442,185.403 281.907 C 185.459 281.372,185.459 280.496,185.403 279.961 C 185.347 279.426,185.301 279.864,185.301 280.934 M207.842 291.569 C 207.842 292.069,207.896 292.273,207.961 292.023 C 208.026 291.774,208.026 291.365,207.961 291.115 C 207.896 290.866,207.842 291.070,207.842 291.569 M208.102 297.795 C 208.102 298.294,208.155 298.499,208.220 298.249 C 208.286 297.999,208.286 297.591,208.220 297.341 C 208.155 297.091,208.102 297.296,208.102 297.795 M208.361 304.021 C 208.361 304.520,208.414 304.724,208.480 304.475 C 208.545 304.225,208.545 303.816,208.480 303.567 C 208.414 303.317,208.361 303.521,208.361 304.021 M208.620 309.987 C 208.620 310.486,208.674 310.691,208.739 310.441 C 208.804 310.191,208.804 309.783,208.739 309.533 C 208.674 309.283,208.620 309.488,208.620 309.987 M106.161 319.974 C 106.164 320.545,106.217 320.748,106.279 320.425 C 106.341 320.102,106.339 319.635,106.274 319.387 C 106.209 319.139,106.159 319.403,106.161 319.974 M126.659 323.476 C 126.659 324.118,126.710 324.381,126.772 324.060 C 126.834 323.739,126.834 323.213,126.772 322.892 C 126.710 322.571,126.659 322.834,126.659 323.476 M101.232 324.446 C 102.053 324.497,103.395 324.497,104.215 324.446 C 105.036 324.394,104.364 324.352,102.724 324.352 C 101.083 324.352,100.412 324.394,101.232 324.446 M287.225 328.275 C 287.228 328.846,287.281 329.049,287.343 328.726 C 287.405 328.403,287.403 327.936,287.338 327.688 C 287.273 327.440,287.222 327.704,287.225 328.275 M318.726 329.091 C 319.038 329.159,319.346 329.443,319.409 329.722 C 319.499 330.116,319.517 330.098,319.490 329.641 C 319.464 329.209,319.283 329.042,318.807 329.011 C 318.267 328.975,318.253 328.989,318.726 329.091 M88.651 337.153 C 89.115 337.210,89.874 337.210,90.337 337.153 C 90.801 337.095,90.422 337.048,89.494 337.048 C 88.567 337.048,88.187 337.095,88.651 337.153 M231.765 343.256 L 230.739 344.358 231.842 343.333 C 232.867 342.379,233.063 342.153,232.867 342.153 C 232.825 342.153,232.329 342.649,231.765 343.256 M256.378 344.747 C 256.378 345.817,256.424 346.255,256.479 345.720 C 256.535 345.185,256.535 344.309,256.479 343.774 C 256.424 343.239,256.378 343.677,256.378 344.747 M128.465 344.488 C 128.465 344.987,128.518 345.191,128.583 344.942 C 128.649 344.692,128.649 344.283,128.583 344.034 C 128.518 343.784,128.465 343.988,128.465 344.488 M188.704 349.481 L 187.678 350.584 188.781 349.558 C 189.806 348.605,190.002 348.379,189.806 348.379 C 189.764 348.379,189.268 348.875,188.704 349.481 M150.255 356.161 C 150.255 356.660,150.308 356.864,150.373 356.615 C 150.439 356.365,150.439 355.957,150.373 355.707 C 150.308 355.457,150.255 355.661,150.255 356.161 M153.307 364.543 C 153.307 364.588,153.687 364.967,154.150 365.386 L 154.994 366.148 154.232 365.305 C 153.521 364.519,153.307 364.343,153.307 364.543 M222.422 369.974 L 221.660 370.817 222.503 370.055 C 222.967 369.636,223.346 369.257,223.346 369.212 C 223.346 369.012,223.132 369.188,222.422 369.974 " stroke="none" fill="#646464" fill-rule="evenodd"></path></g></svg>